HIERARCHY
ROOT root
{
	OFFSET 0.000000 0.000000 0.000000
	CHANNELS 6 Xposition Yposition Zposition Zrotation Yrotation Xrotation
	JOINT lhip
	{
		OFFSET 0.058581 -0.082280 -0.017664
		CHANNELS 3 Zrotation Yrotation Xrotation
		JOINT lknee
		{
			OFFSET 0.043451 -0.386469 0.008037
			CHANNELS 3 Zrotation Yrotation Xrotation
			JOINT lankle
			{
				OFFSET -0.014790 -0.426874 -0.037428
				CHANNELS 3 Zrotation Yrotation Xrotation
				JOINT ltoe
				{
					OFFSET 0.041054 -0.060286 0.122042
					CHANNELS 3 Zrotation Yrotation Xrotation
					End Site
					{
						OFFSET 0.000000 0.000000 0.000000
					}
				}
			}
		}
	}
	JOINT rhip
	{
		OFFSET -0.060310 -0.090513 -0.013543
		CHANNELS 3 Zrotation Yrotation Xrotation
		JOINT rknee
		{
			OFFSET -0.043257 -0.383688 -0.004843
			CHANNELS 3 Zrotation Yrotation Xrotation
			JOINT rankle
			{
				OFFSET 0.019056 -0.420046 -0.034562
				CHANNELS 3 Zrotation Yrotation Xrotation
				JOINT rtoe
				{
					OFFSET -0.034840 -0.062106 0.130323
					CHANNELS 3 Zrotation Yrotation Xrotation
					End Site
					{
						OFFSET 0.000000 0.000000 0.000000
					}
				}
			}
		}
	}
	JOINT lowerback
	{
		OFFSET 0.004439 0.124404 -0.038385
		CHANNELS 3 Zrotation Yrotation Xrotation
		JOINT upperback
		{
			OFFSET 0.004488 0.137956 0.026820
			CHANNELS 3 Zrotation Yrotation Xrotation
			JOINT chest
			{
				OFFSET -0.002265 0.056032 0.002855
				CHANNELS 3 Zrotation Yrotation Xrotation
				JOINT lowerneck
				{
					OFFSET -0.013390 0.211636 -0.033468
					CHANNELS 3 Zrotation Yrotation Xrotation
					JOINT upperneck
					{
						OFFSET 0.010113 0.088937 0.050410
						CHANNELS 3 Zrotation Yrotation Xrotation
						End Site
						{
							OFFSET 0.000000 0.000000 0.000000
						}
					}
				}
				JOINT lclavicle
				{
					OFFSET 0.071702 0.114000 -0.018898
					CHANNELS 3 Zrotation Yrotation Xrotation
					JOINT lshoulder
					{
						OFFSET 0.122921 0.045205 -0.019046
						CHANNELS 3 Zrotation Yrotation Xrotation
						JOINT lelbow
						{
							OFFSET 0.255332 -0.015649 -0.022946
							CHANNELS 3 Zrotation Yrotation Xrotation
							JOINT lwrist
							{
								OFFSET 0.265709 0.012698 -0.007375
								CHANNELS 3 Zrotation Yrotation Xrotation
								End Site
								{
									OFFSET 0.000000 0.000000 0.000000
								}
							}
						}
					}
				}
				JOINT rclavicle
				{
					OFFSET -0.082954 0.112472 -0.023707
					CHANNELS 3 Zrotation Yrotation Xrotation
					JOINT rshoulder
					{
						OFFSET -0.113228 0.046853 -0.008472
						CHANNELS 3 Zrotation Yrotation Xrotation
						JOINT relbow
						{
							OFFSET -0.260127 -0.014369 -0.031269
							CHANNELS 3 Zrotation Yrotation Xrotation
							JOINT rwrist
							{
								OFFSET -0.269108 0.006794 -0.006027
								CHANNELS 3 Zrotation Yrotation Xrotation
								End Site
								{
									OFFSET 0.000000 0.000000 0.000000
								}
							}
						}
					}
				}
			}
		}
	}
}
MOTION
Frames: 14
Frame Time: 0.033333
0.366759 0.782547 0.982357 -7.671592 3.476813 93.333856 12.593323 -4.041892 -4.614740 -2.653057 -4.994759 7.858405 16.093296 11.619340 -15.049726 0.000000 -0.000000 0.000000 -7.272029 -1.040423 -13.883355 4.083081 -0.189232 21.495598 14.169657 -0.625741 -8.617906 0.000000 -0.000000 0.000000 -5.658874 5.076255 -0.053387 6.650820 1.895951 0.863279 3.115169 -2.423282 3.668263 3.964217 0.377756 -5.143319 2.980351 -2.065728 11.090108 -16.801295 7.157065 5.312738 -69.513773 -16.853071 8.968420 131.844613 -75.749537 -96.857536 38.632835 -4.651276 -17.214866 19.759956 -6.163994 0.700741 66.524729 7.314887 12.466519 -124.113728 66.502681 -93.202438 -13.759360 2.675847 -4.471611 
0.367857 0.783456 0.982669 -8.227617 3.685600 91.885087 12.924863 -3.054053 -2.254331 -2.375229 -5.217075 6.128377 0.766221 7.498590 -12.566180 0.000000 -0.000000 0.000000 -7.518327 -0.165667 -14.081407 1.657104 -1.925893 25.714832 14.233263 1.405491 -11.981940 0.000000 -0.000000 0.000000 -5.306843 3.977393 1.619667 6.584590 0.817077 2.401494 2.844409 0.003407 1.926488 4.750074 4.373679 -2.466866 2.308054 -6.711468 9.786831 -16.464704 5.854062 5.888708 -68.367754 -14.147586 9.364855 129.268389 -74.390595 -93.842617 38.814619 -4.121153 -18.379906 20.917932 -5.739463 1.109090 66.559661 6.489740 11.621744 -124.259613 69.065642 -91.361850 -14.497170 3.319650 -5.940595 
0.369917 0.782268 0.983529 -7.663481 2.067549 89.176131 10.643179 -3.024140 1.308836 -2.053819 -6.431107 4.804700 0.687616 7.593830 -12.798116 0.000000 -0.000000 0.000000 -10.318245 -1.722354 -11.278666 -0.714449 -3.627571 27.540387 12.143243 -1.629476 -14.017711 0.000000 -0.000000 0.000000 -5.841250 2.764360 5.149897 5.082683 -1.036258 2.829586 2.138694 1.925387 0.777652 5.431118 5.092448 -1.573747 2.566571 -8.613661 11.697701 -16.206221 6.563555 5.821507 -67.261076 -12.632181 9.190859 126.203175 -74.960861 -91.877291 38.788107 -4.264099 -17.898147 23.185235 -4.308571 1.503911 66.606963 5.369210 11.945722 -118.676339 70.034557 -85.859909 -13.866577 5.847419 -3.552733 
0.369185 0.779654 0.980886 -5.989079 1.410046 89.024722 10.385811 -2.775265 0.740953 -2.816620 -7.374323 5.618648 1.795609 6.724344 -13.065694 0.000000 -0.000000 0.000000 -12.149227 -3.950821 -8.550584 -1.579824 -3.178607 23.931151 9.525981 -3.721913 -7.971053 0.000000 -0.000000 0.000000 -5.571371 2.940971 4.188935 4.820376 -1.847028 3.278959 2.019637 1.356348 0.519979 2.917555 2.009663 1.275982 3.319964 -8.679973 14.014411 -17.582519 7.935680 5.804649 -66.810584 -11.206019 8.644634 123.801875 -78.035632 -90.748285 38.175743 -1.354007 -19.451056 23.285029 -5.010767 3.579071 66.882419 4.356728 11.650893 -114.174823 72.034579 -82.044702 -16.000370 5.079940 -3.843529 
0.367867 0.778768 0.979603 -5.410279 1.100172 89.268896 10.292256 -2.984983 0.075952 -3.115339 -7.571377 6.189978 1.994633 6.608886 -13.267570 0.000000 -0.000000 0.000000 -12.742127 -4.524426 -7.622399 -1.372067 -2.434768 21.963756 10.646216 -2.827817 -6.109492 0.000000 -0.000000 0.000000 -5.883104 3.443257 3.262713 4.908792 -2.065096 3.722648 2.003020 1.275144 0.393655 2.677709 1.245750 2.441012 3.424798 -9.176822 14.606183 -17.690526 8.151873 6.241998 -67.457832 -11.145205 9.024344 122.571771 -78.499488 -90.121672 38.036605 -0.386558 -20.235294 23.363250 -5.598768 3.885080 66.750487 3.490404 11.498402 -114.309837 72.272968 -82.637455 -16.092380 4.598247 -4.501959 
0.363612 0.777542 0.976568 -4.525798 0.408090 89.625989 10.051728 -3.555425 -0.976721 -3.552337 -7.809964 7.104785 2.293979 6.841046 -13.539481 0.000000 -0.000000 0.000000 -14.056371 -5.362241 -5.602063 -0.796300 -2.231294 18.509222 11.870791 -1.778471 -6.170324 0.000000 -0.000000 0.000000 -6.572306 4.608092 1.681427 4.937346 -2.137784 4.459233 1.960175 0.887063 0.487675 2.455679 0.104470 4.260664 3.430365 -10.071465 15.645289 -18.029200 8.602765 6.999730 -68.565719 -10.996416 9.624714 121.820097 -78.878396 -90.418249 38.262190 1.176443 -21.441332 23.511933 -6.483565 4.294974 66.608188 1.847614 11.421240 -115.869916 72.346650 -85.041669 -17.123228 3.789920 -5.858622 
0.358542 0.777144 0.974709 -4.181171 -0.107957 89.335876 9.882577 -3.654490 -1.067504 -3.669682 -8.160172 7.691157 2.016957 6.948053 -13.510351 0.000000 -0.000000 0.000000 -15.224911 -6.165057 -2.767066 0.057608 -3.409618 14.768939 12.957816 -0.145158 -5.759127 0.000000 -0.000000 0.000000 -6.466575 5.135881 1.615614 4.346721 -2.274130 4.448003 1.564376 1.003241 0.862326 2.628046 -0.341431 5.785562 3.421145 -10.676748 16.466002 -18.383491 9.524899 6.894906 -69.058540 -10.263798 9.547864 121.130790 -79.175635 -89.776965 38.957952 1.592153 -21.485795 23.473619 -7.294730 4.346206 66.834677 1.086973 11.110239 -117.249063 73.570570 -86.655276 -18.341993 3.354541 -7.240328 
0.352855 0.777869 0.974287 -4.470126 -0.164221 88.896034 10.253482 -3.151806 -0.753804 -3.649469 -8.225204 7.998057 1.626629 6.721161 -13.301133 0.000000 -0.000000 0.000000 -15.221874 -6.976563 -0.149274 0.854414 -4.132927 10.809522 11.609580 -0.096244 -5.879625 0.000000 -0.000000 0.000000 -5.734109 5.409132 1.895031 3.689465 -2.071967 4.518979 1.209008 1.161929 1.290920 2.343053 -0.753660 6.724322 3.529847 -10.314377 17.454416 -18.838272 10.531044 6.621482 -69.589225 -9.601360 8.829361 118.194400 -79.643102 -86.307730 39.462986 1.621303 -20.950633 23.081579 -7.696184 4.619123 67.268800 1.188888 10.686920 -117.456405 74.814564 -86.350477 -18.642964 3.502415 -7.171829 
0.347455 0.779606 0.973901 -4.849212 -0.327937 89.183441 10.403081 -2.973364 -1.329646 -3.477493 -7.844186 8.430951 1.554579 6.667373 -13.080806 0.000000 -0.000000 0.000000 -15.067312 -7.710456 1.495776 1.571791 -4.632580 6.967996 10.476351 -0.203113 -5.653457 0.000000 -0.000000 0.000000 -5.344606 5.642227 1.316112 3.126632 -2.045822 5.025531 0.905365 1.400350 1.299080 1.908858 -1.158992 7.973106 4.002112 -9.629630 17.740206 -19.073651 11.190933 7.027745 -70.234010 -9.158431 8.056583 115.610181 -79.503154 -83.672438 39.349036 2.343352 -20.987223 22.690704 -7.810698 5.419764 67.549823 1.703841 10.116099 -117.662757 75.599587 -86.202487 -18.456380 3.557183 -7.260198 
0.341971 0.782919 0.972924 -5.162274 -0.559413 89.918222 10.610860 -3.008083 -2.721959 -3.538903 -7.412873 9.303467 1.594395 6.858512 -13.032711 0.000000 -0.000000 0.000000 -15.033536 -8.220714 1.772146 2.149736 -4.279608 4.699307 10.128153 -0.117000 -5.415344 0.000000 -0.000000 0.000000 -5.499395 5.992202 0.629918 2.888471 -1.964472 5.294671 0.843809 1.384063 1.389747 1.649488 -1.317930 8.259430 4.264033 -9.308001 17.889370 -19.223337 11.603071 7.307072 -70.967769 -8.863367 7.723840 113.544429 -79.264356 -81.721435 39.686649 3.496727 -21.414694 22.418709 -7.815692 5.756183 67.713496 2.206879 10.004899 -117.447337 75.848405 -86.096026 -18.742727 3.475088 -7.679171 
0.337015 0.786476 0.972681 -5.703778 -0.479606 90.000791 11.016635 -2.854584 -3.214912 -3.460105 -7.200048 9.947199 1.337815 6.997346 -12.973541 0.000000 -0.000000 0.000000 -14.706405 -8.236497 0.920202 2.199269 -3.811615 5.577567 10.301477 0.465126 -5.740460 0.000000 -0.000000 0.000000 -5.262852 6.101147 1.037740 2.773357 -1.607292 5.346756 0.753744 1.504037 1.582658 1.872815 -1.200033 7.632553 4.035575 -9.530116 18.180212 -19.665078 11.867802 6.797883 -71.372495 -8.482267 7.789955 110.171328 -78.985126 -78.660322 40.075105 3.742182 -21.191276 22.600581 -7.633272 5.327165 67.477931 2.508104 10.134452 -116.155853 75.790362 -85.072920 -19.026612 3.459962 -7.782406 
0.333335 0.789650 0.973474 -5.936532 -0.139815 89.849840 11.405549 -2.849812 -3.293346 -3.071913 -7.179299 10.150580 0.987481 7.261098 -12.783264 0.000000 -0.000000 0.000000 -14.013177 -7.546275 0.267823 2.166512 -3.712753 6.600311 10.094106 0.390657 -6.148628 0.000000 -0.000000 0.000000 -4.793940 5.934480 1.789144 2.790704 -1.290605 5.359023 0.759724 1.513936 1.674576 1.915669 -1.046454 7.462893 3.844833 -9.295968 17.756948 -19.887010 11.960426 6.632508 -72.022057 -8.305087 7.864214 107.408238 -78.819633 -75.806943 40.246393 3.863189 -21.056144 22.538393 -7.415515 5.016886 67.437103 2.982597 10.167078 -113.546672 75.763315 -82.451840 -19.653854 3.492819 -7.134549 
0.330142 0.792193 0.974370 -5.750521 -0.017745 90.020466 11.634104 -2.972121 -3.427337 -2.748562 -6.863083 9.704289 0.965308 7.166419 -12.506107 0.000000 -0.000000 0.000000 -13.486213 -7.075436 -0.202183 2.136179 -4.174793 6.958938 9.569894 0.077821 -6.494974 0.000000 -0.000000 0.000000 -4.908957 5.737946 1.920173 2.940331 -1.342952 5.703813 0.960551 1.378975 1.481298 1.954571 -0.923756 7.408369 3.991787 -8.950627 16.908296 -20.046882 11.769683 6.880111 -72.595781 -8.129101 7.983095 107.600994 -78.213970 -76.038561 39.798282 3.796995 -21.166949 22.438858 -7.159424 5.185688 67.581200 3.283053 10.064899 -112.525187 75.267769 -81.431712 -19.162601 3.596871 -7.334183 
0.327634 0.793215 0.974769 -5.194705 0.086400 90.151022 11.873597 -2.667948 -3.380358 -2.477221 -7.106244 8.955209 0.848309 6.684686 -12.185921 0.000000 -0.000000 0.000000 -13.177516 -7.343567 -0.309135 2.231010 -4.251159 7.135284 9.318724 0.057564 -6.739408 0.000000 -0.000000 0.000000 -5.143062 5.631534 1.883450 3.135757 -1.696443 6.095692 1.192802 1.320742 1.277370 1.970072 -0.536938 7.330349 4.282052 -8.739685 15.699959 -19.864259 11.495362 6.907444 -72.380829 -7.819802 8.020396 109.791932 -79.076995 -77.873315 40.383480 4.269038 -21.399701 22.523209 -7.025268 5.159791 67.718219 3.079726 9.899168 -112.990040 74.854045 -81.999340 -19.858030 3.478743 -7.545488 
